# xmcd
#
# Track frame offsets:
#	150
#	17660
#	34674
#	48436
#	63085
#	80142
#	94958
#	111037
#	128101
#	143708
#	158205
#	173225
#	191357
#	206853
#	223839
#
# Disc length: 3151 seconds
#
# Revision: 0
# Processed by: cddbd v1.5.1PL0 Copyright (c) Steve Scherf et al.
# Submitted via: dBpowerAMP V4.0
#
DISCID=d40c4d0f
DTITLE=Variados - Vanera só vanera
DYEAR=1900
DGENRE=Gaucho
TTITLE0=Pra quem veio "vanerá" - Chiquito e Bordoneio
TTITLE1=Tapadinho de vanera - Os Mateadores
TTITLE2=No Balanço da neguinha -  Sandro Coelho
TTITLE3=Vaneira Swingada - Tchê Barbaridade
TTITLE4=Vaneira Cuiúda - Mate Quente
TTITLE5=Embretados - Os Monarcas
TTITLE6=Quando a vanera pegá - Grupo Reponte
TTITLE7=Vanera, Vanera - Os Serranos
TTITLE8=Alma de campeiro - Os Tiranos
TTITLE9=Buteco do Beto - Tchê Campeiro
TTITLE10=Vanera do povão - Cássia Abreu
TTITLE11=Bailes do Rio Grande - Balanço do Tchê
TTITLE12=De à cavalo na vaneira - Garotos do Fandango
TTITLE13=No Corcóvio da Vaneira - Horácio Bittencourt
TTITLE14=Vaneira Grossa - Petiço
EXTD=Vanera só Vanera
EXTT0=
EXTT1=
EXTT2=
EXTT3=
EXTT4=
EXTT5=
EXTT6=
EXTT7=
EXTT8=
EXTT9=
EXTT10=
EXTT11=
EXTT12=
EXTT13=
EXTT14=
PLAYORDER=
